<svg width="1342" height="1265" xmlns="http://www.w3.org/2000/svg" xmlns:xlink="http://www.w3.org/1999/xlink" overflow="hidden"><defs><clipPath id="clip0"><rect x="-148" y="-114" width="1342" height="1265"/></clipPath><clipPath id="clip1"><rect x="441" y="456" width="703" height="695"/></clipPath><clipPath id="clip2"><rect x="441" y="456" width="703" height="695"/></clipPath><clipPath id="clip3"><rect x="441" y="456" width="703" height="695"/></clipPath><clipPath id="clip4"><rect x="0" y="-114" width="677" height="670"/></clipPath><clipPath id="clip5"><rect x="0" y="-114" width="677" height="670"/></clipPath><clipPath id="clip6"><rect x="0" y="-114" width="677" height="670"/></clipPath><clipPath id="clip7"><path d="M1000.62-113.788 1193.68 404.223 670.19 599.323 477.132 81.3113Z" fill-rule="evenodd" clip-rule="evenodd"/></clipPath><clipPath id="clip8"><path d="M1000.62-113.788 1193.68 404.223 670.19 599.323 477.132 81.3113Z" fill-rule="evenodd" clip-rule="evenodd"/></clipPath><clipPath id="clip9"><path d="M1000.62-113.788 1193.68 404.223 670.19 599.323 477.132 81.3113Z" fill-rule="evenodd" clip-rule="evenodd"/></clipPath><clipPath id="clip10"><path d="M41.3603 1082.73-147.715 563.248 377.255 372.174 566.33 891.653Z" fill-rule="evenodd" clip-rule="evenodd"/></clipPath><clipPath id="clip11"><path d="M41.3603 1082.73-147.715 563.248 377.255 372.174 566.33 891.653Z" fill-rule="evenodd" clip-rule="evenodd"/></clipPath><clipPath id="clip12"><path d="M41.3603 1082.73-147.715 563.248 377.255 372.174 566.33 891.653Z" fill-rule="evenodd" clip-rule="evenodd"/></clipPath></defs><g clip-path="url(#clip0)" transform="translate(148 114)"><g clip-path="url(#clip1)"><g clip-path="url(#clip2)"><g clip-path="url(#clip3)"><path d="M564.253 540.145 564.253 482.228 649.318 489.468 592.56 402.159 627.31 411.498 586.406 349.093 611.672 352.278 551.584 264.896 520.743 309.926 459.351 215.812 498.59 220.735 405.417 83.1104 312.243 220.662 351.482 215.739 287.701 313.619 341.636 299.139 253.385 436.257 383.698 411.715 383.698 500.834C340.839 501.775 300.877 511.114 269.674 531.096 298.633 546.154 329.256 571.999 357.201 615.364L666.041 615.364C642.73 585.754 606.46 559.837 564.253 540.145ZM518.933 312.533 497.794 343.446 468.835 298.922ZM495.622 425.253 453.849 489.468 535.729 482.228 535.729 528.489C498.516 514.424 459.535 505.58 419.896 502.21L419.896 411.715Z" transform="matrix(1.01151 0 0 1 441 456)"/><path d="M233.042 539.059 231.667 539.059 231.667 514.01 267.864 521.25 241.368 472.455 260.625 477.812 237.82 443.135 251.865 444.872 217.187 398.177 185.333 444.727 199.306 442.99 186.998 461.74 159.85 418.303 189.677 426.339 154.42 372.694 176.139 375.372 124.593 300.153 73.0474 375.227 94.7661 372.549 59.5093 426.194 89.3364 418.158 40.5416 493.305 108.594 485.052 108.594 557.448C78.4358 571.222 51.3541 590.917 28.9583 615.364L330.994 615.364C298.198 569.393 262.724 548.253 233.042 539.059ZM130.312 548.977 130.312 485.052 187.143 491.568 173.75 521.25 209.948 514.01 209.948 537.249C182.923 536.501 155.975 540.47 130.312 548.977Z" transform="matrix(1.01151 0 0 1 441 456)"/></g></g></g><g clip-path="url(#clip4)"><g clip-path="url(#clip5)"><g clip-path="url(#clip6)"><path d="M639.034 507.325 499.659 284.325C496.872 280.144 492.691 278.053 487.812 278.053 482.934 278.053 478.753 280.841 475.966 284.325L434.85 349.831 522.656 491.994C530.322 503.144 531.716 517.081 526.837 529.625L625.794 529.625C631.369 529.625 636.247 526.837 639.034 521.959 641.822 517.081 641.822 511.506 639.034 507.325L639.034 507.325Z" transform="matrix(1.01046 0 0 1 0 -113)"/><path d="M300.353 300.353 264.812 332.409 229.272 301.05 162.372 341.469 264.812 174.219 367.253 341.469 300.353 300.353ZM498.962 507.325 276.659 145.647C273.872 142.162 269.691 139.375 264.812 139.375 259.934 139.375 255.753 141.466 252.966 145.647L30.6625 507.325C27.1781 511.506 27.1781 517.778 29.2687 522.656 32.0562 526.837 36.9344 529.625 42.5094 529.625L487.116 529.625C492.691 529.625 497.569 526.837 500.356 521.959 502.447 517.081 502.447 511.506 498.962 507.325Z" transform="matrix(1.01046 0 0 1 0 -113)"/></g></g></g><g clip-path="url(#clip7)"><g clip-path="url(#clip8)"><g clip-path="url(#clip9)"><path d="M506.75 247.616 342.056 109.412 342.056 190.031C89.257 192.335 46.0682 449.164 46.0682 449.164 46.0682 449.164 139.932 312.688 342.056 310.96L342.056 385.821 506.75 247.616Z" transform="matrix(0.349227 0.937038 -0.946943 0.352918 1000.62 -113.788)"/></g></g></g><g clip-path="url(#clip10)"><g clip-path="url(#clip11)"><g clip-path="url(#clip12)"><path d="M506.75 247.616 342.056 109.412 342.056 190.031C89.257 192.335 46.0682 449.164 46.0682 449.164 46.0682 449.164 139.932 312.688 342.056 310.96L342.056 385.821 506.75 247.616Z" transform="matrix(-0.34202 -0.939693 0.949626 -0.345635 41.3603 1082.73)"/></g></g></g></g></svg>